<svg xmlns="http://www.w3.org/2000/svg" viewBox="470 0 150 159.88"><path fill="#E1251B" d="M485.36,28.91c6.74-8.67,15.17-15.62,25.06-20.66,30.68-15.63,67.3-8.58,89.06,17.15,2.28,2.69-7.77,11.04-10.05,8.34-17.87-21.14-47.97-26.93-73.19-14.08-8.13,4.15-15.06,9.86-20.59,16.97-2.21,2.84-11.86-5.67-10.27-7.71Z"/><path fill="#E1251B" d="M515.25,154.1c.68.62,1.5,1.1,2.43,1.39,31.51,9.77,66.26.38,88.54-23.93,2.4-2.61-7.07-11.29-9.47-8.68-18.93,20.66-48.48,28.65-75.26,20.34-3.39-1.05-8.02,9.25-6.24,10.87Z"/><path fill="#3D4B5A" d="M489.83,79.64c0-29.43,23.6-52.59,53.76-52.59s53.76,23.17,53.76,52.59-23.6,52.59-53.76,52.59-53.76-23.17-53.76-52.59ZM577.25,79.64c0-19.67-14.57-34.67-33.65-34.67s-33.65,15.01-33.65,34.67,14.57,34.67,33.65,34.67,33.65-15.01,33.65-34.67Z"/></svg>