<svg xmlns="http://www.w3.org/2000/svg" viewBox="0 0 440 275" width="440" height="275" role="img"><g><circle cx="20" cy="20" r="1" fill="#FFFFFF" opacity=".13"/><circle cx="20" cy="50" r="1" fill="#FFFFFF" opacity=".13"/><circle cx="20" cy="80" r="1" fill="#FFFFFF" opacity=".13"/><circle cx="20" cy="110" r="1" fill="#FFFFFF" opacity=".13"/><circle cx="20" cy="140" r="1" fill="#FFFFFF" opacity=".13"/><circle cx="20" cy="170" r="1" fill="#FFFFFF" opacity=".13"/><circle cx="20" cy="200" r="1" fill="#FFFFFF" opacity=".13"/><circle cx="20" cy="230" r="1" fill="#FFFFFF" opacity=".13"/><circle cx="20" cy="260" r="1" fill="#FFFFFF" opacity=".13"/><circle cx="50" cy="20" r="1" fill="#FFFFFF" opacity=".13"/><circle cx="50" cy="50" r="1" fill="#FFFFFF" opacity=".13"/><circle cx="50" cy="80" r="1" fill="#FFFFFF" opacity=".13"/><circle cx="50" cy="110" r="1" fill="#FFFFFF" opacity=".13"/><circle cx="50" cy="140" r="1" fill="#FFFFFF" opacity=".13"/><circle cx="50" cy="170" r="1" fill="#FFFFFF" opacity=".13"/><circle cx="50" cy="200" r="1" fill="#FFFFFF" opacity=".13"/><circle cx="50" cy="230" r="1" fill="#FFFFFF" opacity=".13"/><circle cx="50" cy="260" r="1" fill="#FFFFFF" opacity=".13"/><circle cx="80" cy="20" r="1" fill="#FFFFFF" opacity=".13"/><circle cx="80" cy="50" r="1" fill="#FFFFFF" opacity=".13"/><circle cx="80" cy="80" r="1" fill="#FFFFFF" opacity=".13"/><circle cx="80" cy="110" r="1" fill="#FFFFFF" opacity=".13"/><circle cx="80" cy="140" r="1" fill="#FFFFFF" opacity=".13"/><circle cx="80" cy="170" r="1" fill="#FFFFFF" opacity=".13"/><circle cx="80" cy="200" r="1" fill="#FFFFFF" opacity=".13"/><circle cx="80" cy="230" r="1" fill="#FFFFFF" opacity=".13"/><circle cx="80" cy="260" r="1" fill="#FFFFFF" opacity=".13"/><circle cx="110" cy="20" r="1" fill="#FFFFFF" opacity=".13"/><circle cx="110" cy="50" r="1" fill="#FFFFFF" opacity=".13"/><circle cx="110" cy="80" r="1" fill="#FFFFFF" opacity=".13"/><circle cx="110" cy="110" r="1" fill="#FFFFFF" opacity=".13"/><circle cx="110" cy="140" r="1" fill="#FFFFFF" opacity=".13"/><circle cx="110" cy="170" r="1" fill="#FFFFFF" opacity=".13"/><circle cx="110" cy="200" r="1" fill="#FFFFFF" opacity=".13"/><circle cx="110" cy="230" r="1" fill="#FFFFFF" opacity=".13"/><circle cx="110" cy="260" r="1" fill="#FFFFFF" opacity=".13"/><circle cx="140" cy="20" r="1" fill="#FFFFFF" opacity=".13"/><circle cx="140" cy="50" r="1" fill="#FFFFFF" opacity=".13"/><circle cx="140" cy="80" r="1" fill="#FFFFFF" opacity=".13"/><circle cx="140" cy="110" r="1" fill="#FFFFFF" opacity=".13"/><circle cx="140" cy="140" r="1" fill="#FFFFFF" opacity=".13"/><circle cx="140" cy="170" r="1" fill="#FFFFFF" opacity=".13"/><circle cx="140" cy="200" r="1" fill="#FFFFFF" opacity=".13"/><circle cx="140" cy="230" r="1" fill="#FFFFFF" opacity=".13"/><circle cx="140" cy="260" r="1" fill="#FFFFFF" opacity=".13"/><circle cx="170" cy="20" r="1" fill="#FFFFFF" opacity=".13"/><circle cx="170" cy="50" r="1" fill="#FFFFFF" opacity=".13"/><circle cx="170" cy="80" r="1" fill="#FFFFFF" opacity=".13"/><circle cx="170" cy="110" r="1" fill="#FFFFFF" opacity=".13"/><circle cx="170" cy="140" r="1" fill="#FFFFFF" opacity=".13"/><circle cx="170" cy="170" r="1" fill="#FFFFFF" opacity=".13"/><circle cx="170" cy="200" r="1" fill="#FFFFFF" opacity=".13"/><circle cx="170" cy="230" r="1" fill="#FFFFFF" opacity=".13"/><circle cx="170" cy="260" r="1" fill="#FFFFFF" opacity=".13"/><circle cx="200" cy="20" r="1" fill="#FFFFFF" opacity=".13"/><circle cx="200" cy="50" r="1" fill="#FFFFFF" opacity=".13"/><circle cx="200" cy="80" r="1" fill="#FFFFFF" opacity=".13"/><circle cx="200" cy="110" r="1" fill="#FFFFFF" opacity=".13"/><circle cx="200" cy="140" r="1" fill="#FFFFFF" opacity=".13"/><circle cx="200" cy="170" r="1" fill="#FFFFFF" opacity=".13"/><circle cx="200" cy="200" r="1" fill="#FFFFFF" opacity=".13"/><circle cx="200" cy="230" r="1" fill="#FFFFFF" opacity=".13"/><circle cx="200" cy="260" r="1" fill="#FFFFFF" opacity=".13"/><circle cx="230" cy="20" r="1" fill="#FFFFFF" opacity=".13"/><circle cx="230" cy="50" r="1" fill="#FFFFFF" opacity=".13"/><circle cx="230" cy="80" r="1" fill="#FFFFFF" opacity=".13"/><circle cx="230" cy="110" r="1" fill="#FFFFFF" opacity=".13"/><circle cx="230" cy="140" r="1" fill="#FFFFFF" opacity=".13"/><circle cx="230" cy="170" r="1" fill="#FFFFFF" opacity=".13"/><circle cx="230" cy="200" r="1" fill="#FFFFFF" opacity=".13"/><circle cx="230" cy="230" r="1" fill="#FFFFFF" opacity=".13"/><circle cx="230" cy="260" r="1" fill="#FFFFFF" opacity=".13"/><circle cx="260" cy="20" r="1" fill="#FFFFFF" opacity=".13"/><circle cx="260" cy="50" r="1" fill="#FFFFFF" opacity=".13"/><circle cx="260" cy="80" r="1" fill="#FFFFFF" opacity=".13"/><circle cx="260" cy="110" r="1" fill="#FFFFFF" opacity=".13"/><circle cx="260" cy="140" r="1" fill="#FFFFFF" opacity=".13"/><circle cx="260" cy="170" r="1" fill="#FFFFFF" opacity=".13"/><circle cx="260" cy="200" r="1" fill="#FFFFFF" opacity=".13"/><circle cx="260" cy="230" r="1" fill="#FFFFFF" opacity=".13"/><circle cx="260" cy="260" r="1" fill="#FFFFFF" opacity=".13"/><circle cx="290" cy="20" r="1" fill="#FFFFFF" opacity=".13"/><circle cx="290" cy="50" r="1" fill="#FFFFFF" opacity=".13"/><circle cx="290" cy="80" r="1" fill="#FFFFFF" opacity=".13"/><circle cx="290" cy="110" r="1" fill="#FFFFFF" opacity=".13"/><circle cx="290" cy="140" r="1" fill="#FFFFFF" opacity=".13"/><circle cx="290" cy="170" r="1" fill="#FFFFFF" opacity=".13"/><circle cx="290" cy="200" r="1" fill="#FFFFFF" opacity=".13"/><circle cx="290" cy="230" r="1" fill="#FFFFFF" opacity=".13"/><circle cx="290" cy="260" r="1" fill="#FFFFFF" opacity=".13"/><circle cx="320" cy="20" r="1" fill="#FFFFFF" opacity=".13"/><circle cx="320" cy="50" r="1" fill="#FFFFFF" opacity=".13"/><circle cx="320" cy="80" r="1" fill="#FFFFFF" opacity=".13"/><circle cx="320" cy="110" r="1" fill="#FFFFFF" opacity=".13"/><circle cx="320" cy="140" r="1" fill="#FFFFFF" opacity=".13"/><circle cx="320" cy="170" r="1" fill="#FFFFFF" opacity=".13"/><circle cx="320" cy="200" r="1" fill="#FFFFFF" opacity=".13"/><circle cx="320" cy="230" r="1" fill="#FFFFFF" opacity=".13"/><circle cx="320" cy="260" r="1" fill="#FFFFFF" opacity=".13"/><circle cx="350" cy="20" r="1" fill="#FFFFFF" opacity=".13"/><circle cx="350" cy="50" r="1" fill="#FFFFFF" opacity=".13"/><circle cx="350" cy="80" r="1" fill="#FFFFFF" opacity=".13"/><circle cx="350" cy="110" r="1" fill="#FFFFFF" opacity=".13"/><circle cx="350" cy="140" r="1" fill="#FFFFFF" opacity=".13"/><circle cx="350" cy="170" r="1" fill="#FFFFFF" opacity=".13"/><circle cx="350" cy="200" r="1" fill="#FFFFFF" opacity=".13"/><circle cx="350" cy="230" r="1" fill="#FFFFFF" opacity=".13"/><circle cx="350" cy="260" r="1" fill="#FFFFFF" opacity=".13"/><circle cx="380" cy="20" r="1" fill="#FFFFFF" opacity=".13"/><circle cx="380" cy="50" r="1" fill="#FFFFFF" opacity=".13"/><circle cx="380" cy="80" r="1" fill="#FFFFFF" opacity=".13"/><circle cx="380" cy="110" r="1" fill="#FFFFFF" opacity=".13"/><circle cx="380" cy="140" r="1" fill="#FFFFFF" opacity=".13"/><circle cx="380" cy="170" r="1" fill="#FFFFFF" opacity=".13"/><circle cx="380" cy="200" r="1" fill="#FFFFFF" opacity=".13"/><circle cx="380" cy="230" r="1" fill="#FFFFFF" opacity=".13"/><circle cx="380" cy="260" r="1" fill="#FFFFFF" opacity=".13"/><circle cx="410" cy="20" r="1" fill="#FFFFFF" opacity=".13"/><circle cx="410" cy="50" r="1" fill="#FFFFFF" opacity=".13"/><circle cx="410" cy="80" r="1" fill="#FFFFFF" opacity=".13"/><circle cx="410" cy="110" r="1" fill="#FFFFFF" opacity=".13"/><circle cx="410" cy="140" r="1" fill="#FFFFFF" opacity=".13"/><circle cx="410" cy="170" r="1" fill="#FFFFFF" opacity=".13"/><circle cx="410" cy="200" r="1" fill="#FFFFFF" opacity=".13"/><circle cx="410" cy="230" r="1" fill="#FFFFFF" opacity=".13"/><circle cx="410" cy="260" r="1" fill="#FFFFFF" opacity=".13"/></g><path d="M 318 38 A 118 118 0 0 1 404 150" fill="none" stroke="#FFFFFF" stroke-opacity=".16" stroke-width="10" stroke-linecap="round"/><path d="M 122 237 A 118 118 0 0 1 36 125" fill="none" stroke="#FFFFFF" stroke-opacity=".10" stroke-width="10" stroke-linecap="round"/><g fill="none" stroke-linecap="round" stroke-linejoin="round"><rect x="120" y="70" width="200" height="126" rx="10" stroke="#FFFFFF" stroke-width="2.5"/><path d="M 100 208 h 240" stroke="#FFFFFF" stroke-width="2.5"/><path d="M 146 170 L 184 140 L 214 154 L 262 108 L 294 124" stroke="#FFB548" stroke-width="2.8"/><circle cx="184" cy="140" r="4.5" fill="#FFB548" stroke="none"/><circle cx="214" cy="154" r="4.5" fill="#FFB548" stroke="none"/><circle cx="262" cy="108" r="4.5" fill="#FFB548" stroke="none"/><line x1="146" y1="92" x2="206" y2="92" stroke="#FFFFFF" stroke-opacity=".6" stroke-width="2.5"/><ellipse cx="348" cy="190" rx="22" ry="7" stroke="#3FC1CC" stroke-width="2.2"/><ellipse cx="348" cy="178" rx="22" ry="7" stroke="#3FC1CC" stroke-width="2.2"/><ellipse cx="348" cy="166" rx="22" ry="7" stroke="#3FC1CC" stroke-width="2.2"/></g></svg>