<svg xmlns="http://www.w3.org/2000/svg" viewBox="0 0 440 275" width="440" height="275" role="img"><g><circle cx="20" cy="20" r="1" fill="#FFFFFF" opacity=".13"/><circle cx="20" cy="50" r="1" fill="#FFFFFF" opacity=".13"/><circle cx="20" cy="80" r="1" fill="#FFFFFF" opacity=".13"/><circle cx="20" cy="110" r="1" fill="#FFFFFF" opacity=".13"/><circle cx="20" cy="140" r="1" fill="#FFFFFF" opacity=".13"/><circle cx="20" cy="170" r="1" fill="#FFFFFF" opacity=".13"/><circle cx="20" cy="200" r="1" fill="#FFFFFF" opacity=".13"/><circle cx="20" cy="230" r="1" fill="#FFFFFF" opacity=".13"/><circle cx="20" cy="260" r="1" fill="#FFFFFF" opacity=".13"/><circle cx="50" cy="20" r="1" fill="#FFFFFF" opacity=".13"/><circle cx="50" cy="50" r="1" fill="#FFFFFF" opacity=".13"/><circle cx="50" cy="80" r="1" fill="#FFFFFF" opacity=".13"/><circle cx="50" cy="110" r="1" fill="#FFFFFF" opacity=".13"/><circle cx="50" cy="140" r="1" fill="#FFFFFF" opacity=".13"/><circle cx="50" cy="170" r="1" fill="#FFFFFF" opacity=".13"/><circle cx="50" cy="200" r="1" fill="#FFFFFF" opacity=".13"/><circle cx="50" cy="230" r="1" fill="#FFFFFF" opacity=".13"/><circle cx="50" cy="260" r="1" fill="#FFFFFF" opacity=".13"/><circle cx="80" cy="20" r="1" fill="#FFFFFF" opacity=".13"/><circle cx="80" cy="50" r="1" fill="#FFFFFF" opacity=".13"/><circle cx="80" cy="80" r="1" fill="#FFFFFF" opacity=".13"/><circle cx="80" cy="110" r="1" fill="#FFFFFF" opacity=".13"/><circle cx="80" cy="140" r="1" fill="#FFFFFF" opacity=".13"/><circle cx="80" cy="170" r="1" fill="#FFFFFF" opacity=".13"/><circle cx="80" cy="200" r="1" fill="#FFFFFF" opacity=".13"/><circle cx="80" cy="230" r="1" fill="#FFFFFF" opacity=".13"/><circle cx="80" cy="260" r="1" fill="#FFFFFF" opacity=".13"/><circle cx="110" cy="20" r="1" fill="#FFFFFF" opacity=".13"/><circle cx="110" cy="50" r="1" fill="#FFFFFF" opacity=".13"/><circle cx="110" cy="80" r="1" fill="#FFFFFF" opacity=".13"/><circle cx="110" cy="110" r="1" fill="#FFFFFF" opacity=".13"/><circle cx="110" cy="140" r="1" fill="#FFFFFF" opacity=".13"/><circle cx="110" cy="170" r="1" fill="#FFFFFF" opacity=".13"/><circle cx="110" cy="200" r="1" fill="#FFFFFF" opacity=".13"/><circle cx="110" cy="230" r="1" fill="#FFFFFF" opacity=".13"/><circle cx="110" cy="260" r="1" fill="#FFFFFF" opacity=".13"/><circle cx="140" cy="20" r="1" fill="#FFFFFF" opacity=".13"/><circle cx="140" cy="50" r="1" fill="#FFFFFF" opacity=".13"/><circle cx="140" cy="80" r="1" fill="#FFFFFF" opacity=".13"/><circle cx="140" cy="110" r="1" fill="#FFFFFF" opacity=".13"/><circle cx="140" cy="140" r="1" fill="#FFFFFF" opacity=".13"/><circle cx="140" cy="170" r="1" fill="#FFFFFF" opacity=".13"/><circle cx="140" cy="200" r="1" fill="#FFFFFF" opacity=".13"/><circle cx="140" cy="230" r="1" fill="#FFFFFF" opacity=".13"/><circle cx="140" cy="260" r="1" fill="#FFFFFF" opacity=".13"/><circle cx="170" cy="20" r="1" fill="#FFFFFF" opacity=".13"/><circle cx="170" cy="50" r="1" fill="#FFFFFF" opacity=".13"/><circle cx="170" cy="80" r="1" fill="#FFFFFF" opacity=".13"/><circle cx="170" cy="110" r="1" fill="#FFFFFF" opacity=".13"/><circle cx="170" cy="140" r="1" fill="#FFFFFF" opacity=".13"/><circle cx="170" cy="170" r="1" fill="#FFFFFF" opacity=".13"/><circle cx="170" cy="200" r="1" fill="#FFFFFF" opacity=".13"/><circle cx="170" cy="230" r="1" fill="#FFFFFF" opacity=".13"/><circle cx="170" cy="260" r="1" fill="#FFFFFF" opacity=".13"/><circle cx="200" cy="20" r="1" fill="#FFFFFF" opacity=".13"/><circle cx="200" cy="50" r="1" fill="#FFFFFF" opacity=".13"/><circle cx="200" cy="80" r="1" fill="#FFFFFF" opacity=".13"/><circle cx="200" cy="110" r="1" fill="#FFFFFF" opacity=".13"/><circle cx="200" cy="140" r="1" fill="#FFFFFF" opacity=".13"/><circle cx="200" cy="170" r="1" fill="#FFFFFF" opacity=".13"/><circle cx="200" cy="200" r="1" fill="#FFFFFF" opacity=".13"/><circle cx="200" cy="230" r="1" fill="#FFFFFF" opacity=".13"/><circle cx="200" cy="260" r="1" fill="#FFFFFF" opacity=".13"/><circle cx="230" cy="20" r="1" fill="#FFFFFF" opacity=".13"/><circle cx="230" cy="50" r="1" fill="#FFFFFF" opacity=".13"/><circle cx="230" cy="80" r="1" fill="#FFFFFF" opacity=".13"/><circle cx="230" cy="110" r="1" fill="#FFFFFF" opacity=".13"/><circle cx="230" cy="140" r="1" fill="#FFFFFF" opacity=".13"/><circle cx="230" cy="170" r="1" fill="#FFFFFF" opacity=".13"/><circle cx="230" cy="200" r="1" fill="#FFFFFF" opacity=".13"/><circle cx="230" cy="230" r="1" fill="#FFFFFF" opacity=".13"/><circle cx="230" cy="260" r="1" fill="#FFFFFF" opacity=".13"/><circle cx="260" cy="20" r="1" fill="#FFFFFF" opacity=".13"/><circle cx="260" cy="50" r="1" fill="#FFFFFF" opacity=".13"/><circle cx="260" cy="80" r="1" fill="#FFFFFF" opacity=".13"/><circle cx="260" cy="110" r="1" fill="#FFFFFF" opacity=".13"/><circle cx="260" cy="140" r="1" fill="#FFFFFF" opacity=".13"/><circle cx="260" cy="170" r="1" fill="#FFFFFF" opacity=".13"/><circle cx="260" cy="200" r="1" fill="#FFFFFF" opacity=".13"/><circle cx="260" cy="230" r="1" fill="#FFFFFF" opacity=".13"/><circle cx="260" cy="260" r="1" fill="#FFFFFF" opacity=".13"/><circle cx="290" cy="20" r="1" fill="#FFFFFF" opacity=".13"/><circle cx="290" cy="50" r="1" fill="#FFFFFF" opacity=".13"/><circle cx="290" cy="80" r="1" fill="#FFFFFF" opacity=".13"/><circle cx="290" cy="110" r="1" fill="#FFFFFF" opacity=".13"/><circle cx="290" cy="140" r="1" fill="#FFFFFF" opacity=".13"/><circle cx="290" cy="170" r="1" fill="#FFFFFF" opacity=".13"/><circle cx="290" cy="200" r="1" fill="#FFFFFF" opacity=".13"/><circle cx="290" cy="230" r="1" fill="#FFFFFF" opacity=".13"/><circle cx="290" cy="260" r="1" fill="#FFFFFF" opacity=".13"/><circle cx="320" cy="20" r="1" fill="#FFFFFF" opacity=".13"/><circle cx="320" cy="50" r="1" fill="#FFFFFF" opacity=".13"/><circle cx="320" cy="80" r="1" fill="#FFFFFF" opacity=".13"/><circle cx="320" cy="110" r="1" fill="#FFFFFF" opacity=".13"/><circle cx="320" cy="140" r="1" fill="#FFFFFF" opacity=".13"/><circle cx="320" cy="170" r="1" fill="#FFFFFF" opacity=".13"/><circle cx="320" cy="200" r="1" fill="#FFFFFF" opacity=".13"/><circle cx="320" cy="230" r="1" fill="#FFFFFF" opacity=".13"/><circle cx="320" cy="260" r="1" fill="#FFFFFF" opacity=".13"/><circle cx="350" cy="20" r="1" fill="#FFFFFF" opacity=".13"/><circle cx="350" cy="50" r="1" fill="#FFFFFF" opacity=".13"/><circle cx="350" cy="80" r="1" fill="#FFFFFF" opacity=".13"/><circle cx="350" cy="110" r="1" fill="#FFFFFF" opacity=".13"/><circle cx="350" cy="140" r="1" fill="#FFFFFF" opacity=".13"/><circle cx="350" cy="170" r="1" fill="#FFFFFF" opacity=".13"/><circle cx="350" cy="200" r="1" fill="#FFFFFF" opacity=".13"/><circle cx="350" cy="230" r="1" fill="#FFFFFF" opacity=".13"/><circle cx="350" cy="260" r="1" fill="#FFFFFF" opacity=".13"/><circle cx="380" cy="20" r="1" fill="#FFFFFF" opacity=".13"/><circle cx="380" cy="50" r="1" fill="#FFFFFF" opacity=".13"/><circle cx="380" cy="80" r="1" fill="#FFFFFF" opacity=".13"/><circle cx="380" cy="110" r="1" fill="#FFFFFF" opacity=".13"/><circle cx="380" cy="140" r="1" fill="#FFFFFF" opacity=".13"/><circle cx="380" cy="170" r="1" fill="#FFFFFF" opacity=".13"/><circle cx="380" cy="200" r="1" fill="#FFFFFF" opacity=".13"/><circle cx="380" cy="230" r="1" fill="#FFFFFF" opacity=".13"/><circle cx="380" cy="260" r="1" fill="#FFFFFF" opacity=".13"/><circle cx="410" cy="20" r="1" fill="#FFFFFF" opacity=".13"/><circle cx="410" cy="50" r="1" fill="#FFFFFF" opacity=".13"/><circle cx="410" cy="80" r="1" fill="#FFFFFF" opacity=".13"/><circle cx="410" cy="110" r="1" fill="#FFFFFF" opacity=".13"/><circle cx="410" cy="140" r="1" fill="#FFFFFF" opacity=".13"/><circle cx="410" cy="170" r="1" fill="#FFFFFF" opacity=".13"/><circle cx="410" cy="200" r="1" fill="#FFFFFF" opacity=".13"/><circle cx="410" cy="230" r="1" fill="#FFFFFF" opacity=".13"/><circle cx="410" cy="260" r="1" fill="#FFFFFF" opacity=".13"/></g><path d="M 318 38 A 118 118 0 0 1 404 150" fill="none" stroke="#FFFFFF" stroke-opacity=".16" stroke-width="10" stroke-linecap="round"/><path d="M 122 237 A 118 118 0 0 1 36 125" fill="none" stroke="#FFFFFF" stroke-opacity=".10" stroke-width="10" stroke-linecap="round"/><g fill="none" stroke-linecap="round" stroke-linejoin="round"><line x1="104" y1="206" x2="336" y2="206" stroke="#FFFFFF" stroke-width="2.5"/><rect x="118" y="88" width="22" height="118" rx="3" stroke="#FFFFFF" stroke-width="2.5"/><line x1="123" y1="104" x2="135" y2="104" stroke="#FFFFFF" stroke-opacity=".6" stroke-width="2"/><rect x="150" y="110" width="18" height="96" rx="3" stroke="#FFFFFF" stroke-width="2.5"/><line x1="155" y1="126" x2="163" y2="126" stroke="#FFFFFF" stroke-opacity=".6" stroke-width="2"/><rect x="178" y="74" width="26" height="132" rx="3" stroke="#FFB548" stroke-width="2.5"/><line x1="183" y1="90" x2="199" y2="90" stroke="#FFB548" stroke-opacity=".6" stroke-width="2"/><rect x="214" y="102" width="20" height="104" rx="3" stroke="#FFFFFF" stroke-width="2.5"/><line x1="219" y1="118" x2="229" y2="118" stroke="#FFFFFF" stroke-opacity=".6" stroke-width="2"/><rect x="244" y="118" width="16" height="88" rx="3" stroke="#FFFFFF" stroke-width="2.5"/><line x1="249" y1="134" x2="255" y2="134" stroke="#FFFFFF" stroke-opacity=".6" stroke-width="2"/><rect x="270" y="82" width="24" height="124" rx="3" stroke="#FFFFFF" stroke-width="2.5"/><line x1="275" y1="98" x2="289" y2="98" stroke="#FFFFFF" stroke-opacity=".6" stroke-width="2"/><g transform="rotate(-16 318 150)"><rect x="306" y="96" width="24" height="110" rx="3" stroke="#FFFFFF" stroke-opacity=".7" stroke-width="2.5"/></g></g></svg>